<?xml version="1.0" encoding="iso-8859-1"?>
<!-- Generator: Adobe Illustrator 21.0.0, SVG Export Plug-In . SVG Version: 6.00 Build 0)  -->
<svg xmlns="http://www.w3.org/2000/svg" xmlns:xlink="http://www.w3.org/1999/xlink" version="1.1" id="Capa_1" x="0px" y="0px" viewBox="0 0 512 512" style="enable-background:new 0 0 512 512;" xml:space="preserve" width="512" height="512">
<g>
	<path style="fill:#FF3C63;" d="M430.949,438.492C474.274,394.299,501,333.775,501,267c0-135.31-109.69-245-245-245   C120.69,22,11,131.69,11,267c0,66.776,26.727,127.3,70.051,171.492L430.949,438.492z"/>
	<polygon style="fill:#6393E4;" points="174.975,136.214 284.826,136.214 394.676,136.214 432.902,136.214 432.902,106.31    79.098,106.31 79.098,136.214  "/>
	<path style="fill:#566CC3;" d="M114.598,121.327v-0.13c0-8.222,6.666-14.887,14.888-14.887H79.098v29.904h50.388   C121.264,136.214,114.598,129.549,114.598,121.327z"/>
	<polygon style="fill:#6393E4;" points="394.676,219.789 284.826,219.789 174.975,219.789 79.098,219.789 79.098,262.322    167.323,262.322 273.569,262.322 379.814,262.322 432.902,262.322 432.902,219.789  "/>
	<path style="fill:#566CC3;" d="M129.486,232.547h3.564v-12.758H79.098v42.533h50.388c-8.222,0-14.888-6.665-14.888-14.887   C114.598,239.213,121.264,232.547,129.486,232.547z"/>
	<path style="fill:#6393E4;" d="M379.814,340.335H273.569H167.323H79.098v48.147h81.286c2.839,0,5.141,2.302,5.141,5.141v64.749   h180.949v-64.749c0-2.839,2.302-5.141,5.141-5.141h81.286v-48.147H379.814z"/>
	<path style="fill:#566CC3;" d="M129.486,359.169h3.564V346.41H79.098v42.534h50.388c-8.222,0-14.888-6.665-14.888-14.888   C114.598,365.834,121.264,359.169,129.486,359.169z"/>
	<path style="fill:#566CC3;" d="M436.138,81.507H75.863c-3.309,0-5.992,2.682-5.992,5.991v15.337c0,3.309,2.683,5.992,5.992,5.992   h360.275c3.309,0,5.992-2.683,5.992-5.992V87.498C442.13,84.189,439.447,81.507,436.138,81.507z"/>
	<rect x="79.098" y="135.215" style="fill:#6CBCE7;" width="88.451" height="85.574"/>
	<rect x="79.098" y="135.215" style="fill:#4DADE2;" width="44.226" height="85.574"/>
	<rect x="167.549" y="135.215" style="fill:#8BCBEC;" width="88.451" height="85.574"/>
	<rect x="256" y="135.215" style="fill:#AADAF2;" width="88.451" height="85.574"/>
	<rect x="344.452" y="135.215" style="fill:#E8F8FC;" width="88.451" height="85.574"/>
	<rect x="79.098" y="260.836" style="fill:#6CBCE7;" width="88.451" height="80.984"/>
	<rect x="79.098" y="260.836" style="fill:#4DADE2;" width="44.226" height="80.984"/>
	<rect x="167.549" y="260.836" style="fill:#8BCBEC;" width="88.451" height="80.984"/>
	<rect x="256" y="260.836" style="fill:#AADAF2;" width="88.451" height="80.984"/>
	<rect x="344.452" y="260.836" style="fill:#E8F8FC;" width="88.451" height="80.984"/>
	<path style="fill:#6CBCE7;" d="M162.408,386.458h-83.31v50.035c7.483,7.808,15.484,15.114,23.936,21.879h64.515v-66.773   C167.549,388.76,165.248,386.458,162.408,386.458z"/>
	<path style="fill:#4DADE2;" d="M123.324,386.458H79.098v50.034c7.483,7.808,15.484,15.114,23.936,21.879h20.289V386.458z"/>
	<path style="fill:#E8F8FC;" d="M432.902,386.458h-83.31c-2.84,0-5.141,2.302-5.141,5.141v66.773h64.514   c8.453-6.765,16.454-14.071,23.937-21.88V386.458z"/>
	<rect x="204.571" y="386.458" style="fill:#8BCBEC;" width="52.581" height="71.913"/>
	<rect x="256" y="386.458" style="fill:#AADAF2;" width="51.429" height="71.913"/>
	<path style="fill:#566CC3;" d="M436.138,207.128H75.863c-3.309,0-5.992,2.683-5.992,5.992v15.337c0,3.309,2.683,5.991,5.992,5.991   h360.275c3.309,0,5.992-2.683,5.992-5.991V213.12C442.13,209.811,439.447,207.128,436.138,207.128z"/>
	<path style="fill:#566CC3;" d="M436.138,332.75H75.863c-3.309,0-5.992,2.683-5.992,5.992v15.337c0,3.309,2.683,5.992,5.992,5.992   h360.275c3.309,0,5.992-2.683,5.992-5.992v-15.337C442.13,335.433,439.447,332.75,436.138,332.75z"/>
	<path style="fill:#3F5AAF;" d="M112.121,95.167L112.121,95.167c0-7.544,6.116-13.66,13.66-13.66H75.863   c-3.309,0-5.992,2.682-5.992,5.992v15.337c0,3.309,2.683,5.992,5.992,5.992h49.919C118.237,108.827,112.121,102.712,112.121,95.167   z"/>
	<path style="fill:#3F5AAF;" d="M112.121,220.789L112.121,220.789c0-7.544,6.116-13.66,13.66-13.66H75.863   c-3.309,0-5.992,2.683-5.992,5.992v15.337c0,3.309,2.683,5.991,5.992,5.991h49.918   C118.237,234.449,112.121,228.333,112.121,220.789z"/>
	<path style="fill:#3F5AAF;" d="M112.121,346.41c0-7.544,6.116-13.66,13.66-13.66H75.863c-3.309,0-5.992,2.683-5.992,5.992v15.337   c0,3.309,2.683,5.992,5.992,5.992h49.918C118.237,360.07,112.121,353.954,112.121,346.41z"/>
	<path style="fill:#8BCBEC;" d="M199.711,458.371h-96.676c13.109,10.491,27.313,19.667,42.424,27.32h54.253V458.371z"/>
	<path style="fill:#AADAF2;" d="M312.289,458.371v27.32h54.253c15.11-7.653,29.315-16.829,42.424-27.32H312.289z"/>
	<rect x="198.915" y="458.371" style="fill:#474979;" width="114.17" height="27.32"/>
	<path style="fill:#383C6B;" d="M242.665,472.031L242.665,472.031c0-7.544,6.116-13.66,13.66-13.66h-57.41v27.32h57.41   C248.781,485.691,242.665,479.576,242.665,472.031z"/>
	<g>
		<path style="fill:#566CC3;" d="M307.429,394.047H204.571c-4.191,0-7.589-3.397-7.589-7.589c0-4.192,3.398-7.589,7.589-7.589    h102.858c4.192,0,7.589,3.397,7.589,7.589C315.018,390.65,311.621,394.047,307.429,394.047z"/>
	</g>
	<path style="fill:#3F5AAF;" d="M246.232,386.458c0-4.192,3.398-7.589,7.589-7.589h-49.25c-4.191,0-7.589,3.397-7.589,7.589   c0,4.192,3.398,7.589,7.589,7.589h49.25C249.63,394.047,246.232,390.65,246.232,386.458z"/>
	<path style="fill:#474979;" d="M326.87,56.416c32.59,0,53.039,0,66.5,0V25.97h-66.5V56.416z"/>
	<path style="fill:#383C6B;" d="M326.87,56.416c16.295,0,26.52,0,33.25,0V25.97h-33.25V56.416z"/>
	<path style="fill:#E8F8FC;" d="M454.314,68.859c0-7.544-6.116-13.66-13.66-13.66c-117.557,0-332.718,0-369.307,0   c-7.544,0-13.66,6.116-13.66,13.66c0,7.545,6.116,13.66,13.66,13.66c36.875,0,251.824,0,369.307,0   C448.198,82.519,454.314,76.403,454.314,68.859z"/>
	<path style="fill:#AADAF2;" d="M108.937,68.859c0-7.545,6.116-13.66,13.66-13.66c-24.462,0-42.715,0-51.25,0   c-7.544,0-13.66,6.116-13.66,13.66c0,7.545,6.116,13.66,13.66,13.66c8.587,0,26.832,0,51.25,0   C115.052,82.519,108.937,76.403,108.937,68.859z"/>
	<path style="fill:#64679C;" d="M407.03,13.66c0-7.545-6.116-13.66-13.66-13.66c-12.938,0-21.551,0-66.5,0   c-7.544,0-13.66,6.116-13.66,13.66s6.116,13.66,13.66,13.66c44.94,0,53.549,0,66.5,0C400.914,27.32,407.03,21.205,407.03,13.66z"/>
	<path style="fill:#474979;" d="M348.309,13.66c0-7.544,6.116-13.66,13.66-13.66c-8.513,0-19.663,0-35.099,0   c-7.545,0-13.66,6.116-13.66,13.66s6.115,13.66,13.66,13.66c15.438,0,26.587,0,35.099,0   C354.425,27.32,348.309,21.205,348.309,13.66z"/>
	<path style="fill:#AADAF2;" d="M192.621,503.705V484.68h-49.138C158.97,492.701,175.424,499.112,192.621,503.705z"/>
	<path style="fill:#E8F8FC;" d="M368.517,484.68h-49.138v19.025C336.577,499.112,353.03,492.701,368.517,484.68z"/>
	<path style="fill:#64679C;" d="M321.211,484.68H190.789v18.53C211.554,508.929,233.417,512,256,512   c22.583,0,44.446-3.071,65.211-8.791V484.68z"/>
	<path style="fill:#474979;" d="M239.717,499.18L239.717,499.18c0-7.4,5.488-13.502,12.613-14.5h-61.54v18.53   c18.004,4.959,36.834,7.923,56.243,8.625C242.605,509.254,239.717,504.512,239.717,499.18z"/>
</g>















</svg>
